<svg width="55" height="35" viewBox="0 0 55 35" fill="none" xmlns="http://www.w3.org/2000/svg">
<path d="M18 0.875H37C46.1817 0.875 53.625 8.31827 53.625 17.5C53.625 26.6817 46.1817 34.125 37 34.125H18C8.81827 34.125 1.37501 26.6817 1.37501 17.5C1.37501 8.31827 8.81827 0.875 18 0.875Z" fill="#FF0000"/>
<path d="M18 24.625C14.065 24.625 10.875 21.435 10.875 17.5C10.875 13.565 14.065 10.375 18 10.375C21.935 10.375 25.125 13.565 25.125 17.5C25.125 21.435 21.935 24.625 18 24.625Z" fill="#FF0000"/>
<path d="M18 0.875H37C46.1817 0.875 53.625 8.31827 53.625 17.5C53.625 26.6817 46.1817 34.125 37 34.125H18C8.81827 34.125 1.37501 26.6817 1.37501 17.5C1.37501 8.31827 8.81827 0.875 18 0.875Z" stroke="#5A3F2B" stroke-width="1.5" stroke-linecap="round" stroke-linejoin="round"/>
<path d="M18 24.625C14.065 24.625 10.875 21.435 10.875 17.5C10.875 13.565 14.065 10.375 18 10.375C21.935 10.375 25.125 13.565 25.125 17.5C25.125 21.435 21.935 24.625 18 24.625Z" stroke="#5A3F2B" stroke-width="1.5" stroke-linecap="round" stroke-linejoin="round"/>
</svg>
