<svg width="55" height="35" viewBox="0 0 55 35" fill="none" xmlns="http://www.w3.org/2000/svg">
<path d="M37 0.875H18C8.81827 0.875 1.375 8.31827 1.375 17.5C1.375 26.6817 8.81827 34.125 18 34.125H37C46.1817 34.125 53.625 26.6817 53.625 17.5C53.625 8.31827 46.1817 0.875 37 0.875Z" fill="#00FF0A"/>
<path d="M37 24.625C40.935 24.625 44.125 21.435 44.125 17.5C44.125 13.565 40.935 10.375 37 10.375C33.065 10.375 29.875 13.565 29.875 17.5C29.875 21.435 33.065 24.625 37 24.625Z" fill="#00FF0A"/>
<path d="M37 0.875H18C8.81827 0.875 1.375 8.31827 1.375 17.5C1.375 26.6817 8.81827 34.125 18 34.125H37C46.1817 34.125 53.625 26.6817 53.625 17.5C53.625 8.31827 46.1817 0.875 37 0.875Z" stroke="#5A3F2B" stroke-width="1.5" stroke-linecap="round" stroke-linejoin="round"/>
<path d="M37 24.625C40.935 24.625 44.125 21.435 44.125 17.5C44.125 13.565 40.935 10.375 37 10.375C33.065 10.375 29.875 13.565 29.875 17.5C29.875 21.435 33.065 24.625 37 24.625Z" stroke="#5A3F2B" stroke-width="1.5" stroke-linecap="round" stroke-linejoin="round"/>
</svg>
